<svg width="100" height="32" viewBox="0 0 80 22" fill="none" xmlns="http://www.w3.org/2000/svg">
<path d="M61.7812 19.9578C62.908 20.0438 64.0291 20.1413 65.1503 20.2446V0H61.7812V19.9578ZM7.59022 12.4485L3.2009 0.00573611H0V22C1.12115 21.8394 2.24231 21.6787 3.36907 21.5296V9.56297L7.27069 21.0305C8.49835 20.8871 9.72602 20.7494 10.9593 20.6175V0H7.59022V12.4485ZM14.1938 20.302C17.2994 20.0151 20.4162 19.7742 23.5499 19.5906V16.1888C21.5486 16.3093 19.5529 16.4469 17.5629 16.6076V11.4675C18.869 11.4561 20.59 11.4159 22.1148 11.4331V8.03703C20.8983 8.03129 18.9419 8.05424 17.5629 8.07145V3.43051H23.5499V0.00573611H14.1938V20.302ZM25.7137 3.43051H29.2397V19.3153C30.3609 19.2694 31.482 19.2349 32.6088 19.2063V3.43051H36.1348V0.00573611H25.7137V3.43051ZM38.293 19.1087H41.6621V11.2668H46.2308V7.87067H41.6621V3.43051H47.6995V0.00573611H38.293V19.1087ZM79.9944 0H76.2946L73.8561 5.78827L71.6642 0H68.0205L71.9389 10.3374L67.6617 20.4798C68.8445 20.6003 70.0217 20.7265 71.2045 20.8584L73.6935 14.9611L76.1544 21.4608C77.4382 21.6271 78.7163 21.805 79.9944 21.9943H80L75.6107 10.412L79.9944 0ZM53.2212 0H49.8521V19.2808C52.9129 19.3898 55.9624 19.5447 59.0008 19.7512V16.3551C57.078 16.2232 55.1552 16.1142 53.2212 16.0224V0Z" fill="#E50914"/>
</svg>
